<?xml version="1.0" encoding="utf-8"?>
<!-- Generator: Adobe Illustrator 17.1.0, SVG Export Plug-In . SVG Version: 6.00 Build 0)  -->
<!DOCTYPE svg PUBLIC "-//W3C//DTD SVG 1.1//EN" "http://www.w3.org/Graphics/SVG/1.1/DTD/svg11.dtd">
<svg version="1.1" id="Layer_1" xmlns="http://www.w3.org/2000/svg" xmlns:xlink="http://www.w3.org/1999/xlink" x="0px" y="0px"
	 viewBox="0 0 175.748 51.634" enable-background="new 0 0 175.748 51.634" xml:space="preserve">
<g>
	<path fill-rule="evenodd" clip-rule="evenodd" fill="#FFD800" d="M0,0h36.036v51.634H0V0L0,0z M5.194,46.436h25.63V5.2H5.194
		V46.436L5.194,46.436z"/>
	<path fill-rule="evenodd" clip-rule="evenodd" d="M59.973,23.166h-2.229c-2.928-4.136-5.832-8.245-8.733-12.891H48.99v12.891
		h-2.464V5.192h2.231c2.928,4.107,5.827,8.188,8.701,12.809h0.052V5.192h2.463V23.166L59.973,23.166z"/>
	<path fill-rule="evenodd" clip-rule="evenodd" d="M65.83,16.052c0.715-2.363,1.435-4.545,2.078-7.319h0.052
		c0.718,2.775,1.361,4.957,2.028,7.319H65.83L65.83,16.052z M67.008,5.192l-6.21,17.974h2.67l1.562-4.905h5.422l1.411,4.905h3.442
		L69.577,5.192H67.008L67.008,5.192z"/>
	<polygon fill-rule="evenodd" clip-rule="evenodd" points="78.204,23.166 78.204,7.603 73.478,7.603 73.478,5.192 86.007,5.192 
		86.007,7.603 81.285,7.603 81.285,23.166 78.204,23.166 	"/>
	<polygon fill-rule="evenodd" clip-rule="evenodd" points="87.007,5.192 90.066,5.192 90.066,23.166 87.007,23.166 87.007,5.192 	
		"/>
	<path fill-rule="evenodd" clip-rule="evenodd" d="M99.567,20.903c-3.214,0-4.342-3.543-4.342-6.984c0-3.311,1.282-6.47,4.342-6.47
		c3.054,0,4.333,3.159,4.333,6.47C103.9,17.36,102.774,20.903,99.567,20.903L99.567,20.903z M99.567,23.47
		c4.697,0,7.623-4.183,7.623-9.552c0-5.031-3.231-9.036-7.623-9.036c-4.388,0-7.634,4.005-7.634,9.036
		C91.933,19.288,94.866,23.47,99.567,23.47L99.567,23.47z"/>
	<path fill-rule="evenodd" clip-rule="evenodd" d="M122.517,23.166h-2.233c-2.928-4.136-5.832-8.245-8.729-12.891h-0.026v12.891
		h-2.461V5.192h2.232c2.926,4.107,5.827,8.188,8.697,12.809h0.054V5.192h2.466V23.166L122.517,23.166z"/>
	<path fill-rule="evenodd" clip-rule="evenodd" d="M128.371,16.052c0.721-2.363,1.435-4.545,2.081-7.319h0.052
		c0.719,2.775,1.359,4.957,2.026,7.319H128.371L128.371,16.052z M129.554,5.192l-6.213,17.974h2.672l1.562-4.905h5.419l1.413,4.905
		h3.441l-5.727-17.974H129.554L129.554,5.192z"/>
	<polygon fill-rule="evenodd" clip-rule="evenodd" points="138.741,5.192 141.802,5.192 141.802,20.751 147.885,20.751 
		147.885,23.166 138.741,23.166 138.741,5.192 	"/>
	<path fill-rule="evenodd" clip-rule="evenodd" d="M58.079,38.199v7.419c-1.644,0.643-3.366,1.104-5.107,1.104
		c-5.291,0-8.628-4.109-8.628-9.398c0-4.906,3.337-9.192,8.729-9.192c1.666,0,3.336,0.62,4.363,1.388l-1.002,2.131
		c-0.82-0.509-2.107-0.946-3.286-0.946c-3.284,0-5.52,2.593-5.52,6.677c0,4.259,2.569,6.773,5.214,6.773
		c0.818,0,1.515-0.098,2.16-0.435v-5.52H58.079L58.079,38.199z"/>
	<polygon fill-rule="evenodd" clip-rule="evenodd" points="69.099,30.859 63.958,30.859 63.958,35.785 68.99,35.785 68.99,38.199 
		63.958,38.199 63.958,43.999 70.017,43.999 70.017,46.416 60.875,46.416 60.875,28.441 69.099,28.441 69.099,30.859 	"/>
	<path fill-rule="evenodd" clip-rule="evenodd" d="M78.598,44.154c-3.213,0-4.344-3.54-4.344-6.984c0-3.309,1.284-6.466,4.344-6.466
		c3.053,0,4.334,3.158,4.334,6.466C82.932,40.613,81.8,44.154,78.598,44.154L78.598,44.154z M78.598,46.722
		c4.696,0,7.621-4.184,7.621-9.552c0-5.031-3.233-9.039-7.621-9.039c-4.396,0-7.628,4.008-7.628,9.039
		C70.97,42.538,73.892,46.722,78.598,46.722L78.598,46.722z"/>
	<path fill-rule="evenodd" clip-rule="evenodd" d="M101.006,38.199v7.419c-1.646,0.643-3.362,1.104-5.11,1.104
		c-5.287,0-8.626-4.109-8.626-9.398c0-4.906,3.339-9.192,8.732-9.192c1.671,0,3.336,0.62,4.361,1.388L99.36,31.65
		c-0.82-0.509-2.096-0.946-3.281-0.946c-3.29,0-5.525,2.593-5.525,6.677c0,4.259,2.57,6.773,5.215,6.773
		c0.824,0,1.513-0.098,2.158-0.435v-5.52H101.006L101.006,38.199z"/>
	<path fill-rule="evenodd" clip-rule="evenodd" d="M106.918,30.859h1.358c1.818,0,2.847,1.048,2.847,2.899
		c0,2.412-1.462,3.489-2.927,3.566c-0.308,0.031-1.028,0.057-1.279,0.079V30.859L106.918,30.859z M114.72,46.416l-3.627-7.444
		c1.978-1.05,3.113-3.186,3.113-5.344c0-3.495-2.134-5.187-5.577-5.187h-4.799v17.975h3.087v-6.779h1.385l2.896,6.779H114.72
		L114.72,46.416z"/>
	<path fill-rule="evenodd" clip-rule="evenodd" d="M119.802,39.303c0.717-2.366,1.435-4.546,2.08-7.319h0.052
		c0.718,2.773,1.358,4.953,2.027,7.319H119.802L119.802,39.303z M120.982,28.441l-6.214,17.975h2.67l1.568-4.906h5.421l1.405,4.906
		h3.446l-5.729-17.975H120.982L120.982,28.441z"/>
	<path fill-rule="evenodd" clip-rule="evenodd" d="M135.05,28.441h-4.8v17.975h3.082v-6.779h1.382c3.674,0,5.91-2.979,5.91-6.009
		C140.624,30.133,138.492,28.441,135.05,28.441L135.05,28.441z M134.619,37.324c-0.32,0.029-1.073,0.053-1.287,0.074v-6.539h1.382
		c1.797,0,2.828,1.048,2.828,2.899C137.542,36.17,136.083,37.247,134.619,37.324L134.619,37.324z"/>
	<polygon fill-rule="evenodd" clip-rule="evenodd" points="154.899,46.416 151.817,46.416 151.817,37.766 145.419,37.766 
		145.419,46.416 142.373,46.416 142.373,28.441 145.419,28.441 145.419,35.348 151.817,35.348 151.817,28.492 154.899,28.492 
		154.899,46.416 	"/>
	<polygon fill-rule="evenodd" clip-rule="evenodd" points="157.848,28.441 160.91,28.441 160.91,46.416 157.848,46.416 
		157.848,28.441 	"/>
	<path fill-rule="evenodd" clip-rule="evenodd" d="M174.77,31.704c-0.746-0.463-1.973-1-3.16-1c-3.137,0-5.415,2.593-5.415,6.677
		c0,4.259,2.515,6.773,5.495,6.773c1.182,0,2.283-0.387,3.08-0.901l0.849,2.236c-0.93,0.641-2.569,1.232-4.056,1.232
		c-5.29,0-8.63-4.109-8.63-9.398c0-4.906,3.31-9.192,8.676-9.192c1.595,0,3.079,0.672,4.138,1.388L174.77,31.704L174.77,31.704z"/>
</g>
</svg>
